# xmcd CD database file
#
# Track frame offsets:
#	150
#	14017
#	28372
#	39625
#	52022
#	65732
#	77907
#	92625
#	103050
#	116047
#	128517
#
# Disc length: 1967 seconds
#
# Revision: 1
# Processed by: cddbd v1.5.2PL0 Copyright (c) Steve Scherf et al.
# Submitted via: CDex 1.70beta3
#
DISCID=9c07ad0b
DTITLE=Max Roach - The Max Roach Quartet Featuring Hank Mobley
DYEAR=1953
DGENRE=Jazz
TTITLE0=Cou-Manchi-Cou
TTITLE1=Just One Of Those Things
TTITLE2=Glow Worm
TTITLE3=Mobleyzation
TTITLE4=Chi-Chi
TTITLE5=Kismet
TTITLE6=I'm Fool To Want You
TTITLE7=Sfax
TTITLE8=Orientation
TTITLE9=Drum Conversation
TTITLE10=Drum Conversation (Part 2)
EXTD=YEAR: 1953
EXTT0=
EXTT1=
EXTT2=
EXTT3=
EXTT4=
EXTT5=
EXTT6=
EXTT7=
EXTT8=
EXTT9=
EXTT10=
PLAYORDER=
